<svg width="524" height="172" viewBox="0 0 524 172" xmlns="http://www.w3.org/2000/svg"><title>Artboard 5</title><g fill="none" fill-rule="evenodd"><path d="M496.754 133.339c-3 6.506-13.498 7.749-21.391 6.1-7.894-1.648-9.25-8.994-9.25-8.994s-4.14-13.574 11.506-16.788c15.646-3.214 22.136 13.175 19.135 19.682z" fill="#FFC107"/><path d="M477.502 127.548s-9.154.61-10.545-.247c-1.39-.858-1.282-2.029-1.282-2.029s.174-4.946 3.287-7.903c3.113-2.958 8.54 10.18 8.54 10.18z" fill="#F9B405"/><g transform="rotate(3 154.156 8805.688)"><path d="M32.51 133.65c.317 0 27.12-23.421 27.12-52.313 0-28.89-18.851-52.312-27.12-52.312-8.268 0-27.751 23.421-27.751 52.313 0 28.89 27.435 52.312 27.752 52.312z" fill="#FFC107"/><ellipse stroke="#C7254E" stroke-width="1.012" cx="32.511" cy="5.737" rx="5.957" ry="5.737"/><path d="M34.147 33.075s8.295 22.674 8.965 47.386c.67 24.71-6.27 48.487-8.965 51.982-5.56 7.21 20.3-21.367 18.638-50.54-1.66-29.174-18.638-48.828-18.638-48.828z" fill="#F5871E"/><path d="M33.71 33.075s7.271 22.674 7.86 47.386c.587 24.71-5.498 48.487-7.86 51.982-4.875 7.21 17.796-21.367 16.34-50.54-1.457-29.174-16.34-48.828-16.34-48.828z" fill="#E57B17"/><path d="M31.652 33.075s-8.295 22.674-8.966 47.386c-.67 24.71 6.27 48.487 8.966 51.982 5.56 7.21-20.3-21.367-18.639-50.54 1.661-29.174 18.639-48.828 18.639-48.828z" fill="#F5871E"/><path d="M32.116 33.177S25.4 55.75 24.73 80.461c-.67 24.71 6.27 48.487 8.965 51.982 5.56 7.21-20.3-21.367-18.638-50.54 1.66-29.174 17.06-48.726 17.06-48.726z" fill="#E57B17"/><path d="M26.092 31.525S8.485 54.25 7.815 78.961c-.67 24.71 15.583 47.351 18.277 50.846 5.561 7.21-23.25-20.859-21.59-50.032 1.662-29.173 21.59-48.25 21.59-48.25zM37.48 29.025s17.607 22.724 18.277 47.436c.67 24.71-15.582 47.351-18.277 50.846-5.561 7.21 23.25-20.859 21.59-50.032-1.662-29.173-21.59-48.25-21.59-48.25z" fill="#F9B405"/><ellipse fill="#554D8B" transform="matrix(1 0 0 -1 0 61.425)" cx="32.17" cy="30.712" rx="12.085" ry="3.375"/><ellipse fill="#38335F" transform="matrix(1 0 0 -1 0 61.425)" cx="32.34" cy="30.712" rx="5.787" ry="2.025"/><path fill="#F85C5B" d="M31.319 5.737h2.723v24.975h-2.723z"/><ellipse fill="#554D8B" cx="32.511" cy="18.225" rx="5.957" ry="1.35"/><ellipse fill="#38335F" cx="32.681" cy="18.056" rx="3.404" ry="1"/><ellipse fill="#E23E57" cx="32.681" cy="6.075" rx="3.404" ry="3.375"/><path fill="#F85C5B" d="M31.319 15.525h2.723v2.7h-2.723z"/><path d="M16.418 112.83s33.218-3.8 33.999 1.06c.78 4.86-9.77 20.607-18.262 20.607s-18.196-18.49-18.196-19.874c0-1.385 2.459-1.794 2.459-1.794z" fill="#554D8B"/><path d="M19.085 118.81s27.885-2.75 28.54.769c.655 3.518-8.2 14.918-15.33 14.918-7.128 0-15.274-13.386-15.274-14.388 0-1.003 2.064-1.298 2.064-1.298z" fill="#383565"/><path d="M22.654 125.781s20.914-1.528 21.405.427c.492 1.955-6.15 8.29-11.497 8.29-5.347 0-11.456-7.439-11.456-7.996 0-.557 1.548-.721 1.548-.721z" fill="#2F2D57"/><ellipse stroke="#AD8ABB" stroke-width=".5" fill="#F8CF1C" cx="21.617" cy="115.931" rx="1.532" ry="1.519"/><ellipse stroke="#AD8ABB" stroke-width=".5" fill="#F8CF1C" cx="33.191" cy="114.581" rx="1.532" ry="1.519"/><ellipse stroke="#AD8ABB" stroke-width=".5" fill="#F8CF1C" cx="44.085" cy="115.256" rx="1.532" ry="1.519"/><path d="M32.554 45.04s9.434 8.245 9.434 20.475c0 12.229 4.896 34.949.682 32.55-4.214-2.4-4.213-21.768-7.619-16.23-3.405 5.538-6.26 14.514-9.41 14.514-3.15 0-10.203-8.607-3.143-29.959 7.06-21.35 10.056-21.35 10.056-21.35z" fill-opacity=".2" fill="#E0AE18" style="mix-blend-mode:multiply"/><path d="M29.355 54.675S14.679 93.015 19.274 97.09c4.595 4.074 10.08-42.415 10.08-42.415zM36.085 54.675s14.676 38.34 10.081 42.415c-4.595 4.074-10.08-42.415-10.08-42.415z" fill="#554D8B"/><path d="M36.085 54.675s11.268 38.337 9.404 42.492c-.784 1.75-3.369-5.356-5.18-14.349-1.812-8.993-4.224-28.143-4.224-28.143zM29.357 54.675S18.09 93.012 19.953 97.167c.784 1.75 3.369-5.356 5.18-14.349 1.812-8.993 4.224-28.143 4.224-28.143z" fill="#463F76"/><g transform="translate(55.149 63.788)" fill="#F85C5B"><ellipse cx="4.426" cy="12.15" rx="4.426" ry="12.15"/><path d="M4.426 24.3C6.87 24.3 6.87 0 4.426 0 1.98 0 0 5.44 0 12.15S1.981 24.3 4.426 24.3z" fill-opacity=".3" style="mix-blend-mode:multiply"/></g><g transform="matrix(-1 0 0 1 9.184 63.788)" fill="#F85C5B"><ellipse cx="4.426" cy="12.15" rx="4.426" ry="12.15"/><path d="M4.426 24.3C6.87 24.3 6.87 0 4.426 0 1.98 0 0 5.44 0 12.15S1.981 24.3 4.426 24.3z" fill-opacity=".3" style="mix-blend-mode:multiply"/></g></g><path d="M478.88 139.899c.106-.112-4.63-4.709-6.468-8.305-1.838-3.595-2.77-4.24-3.38-2.928-.609 1.313-.914 4.04 2.486 7.38 3.401 3.342 7.257 3.965 7.362 3.853z" fill="#F9B405"/><path d="M478.438 139.741s-5.319-3.748-6.989-7.014c-1.67-3.267-1.001-4.239-1.555-3.046-.553 1.193-.83 3.669 2.258 6.704 3.09 3.036 6.286 3.356 6.286 3.356z" fill="#383565"/><g><path d="M440.69 159.637c-.278 3.17-.12 9.024 5.655 9.53 5.773.504 10.943-4.202 11.22-7.378.279-3.176-3.818-10.044-9.632-10.552-5.813-.51-6.967 5.231-7.244 8.4zM473.825 159.525c-.277 3.169-.118 9.024 5.663 9.53 5.78.505 10.936-4.202 11.214-7.378.278-3.176-3.824-10.045-9.645-10.554-5.82-.51-6.955 5.233-7.232 8.402z" stroke="#E9F0F4" stroke-width="4" fill="#F9F9F9" fill-rule="nonzero"/><path d="M443.37 154.856c-.891.077-2.444 4.147-1.057 6.942 2.453 4.99 12.906 3.633 12.956 3.293.021-.237-4.957.403-8.306-2.978-3.03-2.987-2.69-7.319-3.594-7.257zM486.646 154.629c.89-.078 2.976 3.323 1.992 6.075-1.743 4.875-12.237 5.34-12.341 5.018-.104-.32 4.952-.44 7.795-4.013 2.568-3.203 1.628-7.005 2.554-7.08z" fill="#F1F1F1" fill-rule="nonzero"/><path d="M486.942 147.287c-1.38 15.767-6.343 19.857-22.95 18.404-16.606-1.453-25.237-6.889-23.859-22.649 1.38-15.76 12.363-19.513 28.943-18.063 16.579 1.45 19.244 6.549 17.866 22.308z" stroke="#E9F0F4" stroke-width="4" fill="#F9F9F9" fill-rule="nonzero"/><path d="M492.424 104.878c9.446 23.612-27.38 32.135-36.791 31.848-30.869-.91-32.398-18.538-30.716-37.76 1.682-19.224 18.146-33.48 36.806-31.848 18.66 1.633 23.536 19.847 30.701 37.76z" fill="#F9F9F9" fill-rule="nonzero"/><path d="M410.095 61.854l-2.276 1.242a1.982 1.982 0 0 1-2.08-.156c-.591-.441-.803-1.16-.525-1.783l2.199-4.813" fill="#F7F0F4" fill-rule="nonzero"/><path d="M455.692 58.427a21.445 21.445 0 0 0 .361 9.85c1.724 6.302 7.91 2.145 19.743 10.591 6.65 4.734 7.318-16.88 4.12-25.006-3.196-8.126-11.424-13.655-16.442-16.432a3.144 3.144 0 0 0-2.944-.056 3.225 3.225 0 0 0-1.731 2.414c-.687 4.798-1.871 12.561-3.107 18.64z" fill="#F5F5F5" fill-rule="nonzero"/><path d="M485.076 78.196c4.747-8.633-1.977-41.55-23.126-48.07-2.418-.747-4.961.172-5.32 2.708-.785 5.444-2.137 14.304-3.548 21.266a24.481 24.481 0 0 0 .389 11.232" stroke="#E9F0F4" stroke-width="4"/><path d="M416.258 79.176a22.354 22.354 0 0 0 5.459 8.148c8.607 8.444 6.613 1.447 18.99-4.424 9.429-4.475.852-15.232-6.12-20.418-10.23-7.615-27.142-4.76-27.142-4.76s5.53 12.428 8.813 21.454z" fill="#F5F5F5" fill-rule="nonzero"/><path d="M443.772 67.032c-3.056-9.313-25.118-21.558-44.18-10.312-2.167 1.286-3.235 3.778-1.646 5.744 3.411 4.229 7.604 13.621 11.574 19.374 5.01 7.25 8.083 7.52 11.659 7.832" stroke="#E9F0F4" stroke-width="4"/><path d="M496.97 106.286c11.01 26.339-31.55 35.698-42.45 35.347-35.701-1.126-37.541-20.776-35.668-42.181 1.872-21.405 20.877-37.27 42.453-35.382 21.576 1.888 27.31 22.204 35.665 42.216z" stroke="#E9F0F4" stroke-width="4"/><path d="M485.917 77.83c4.165-30.137-16.742-47.024-23.62-47.799-3.455-.399-4.743 1.079-4.743 1.079a3.318 3.318 0 0 0-.67 1.6c-.787 5.407-2.143 14.207-3.565 21.12-1.82 8.829-.555 10.737.806 10.254 2.73-.957 5.797.037 10.997 1.232 12.994 2.914 20.41 15.315 20.795 12.514zM443.59 66.78c3.224-1.632-27.493-24.405-44.052-10.245-2.606 2.232-2.363 4.14-2.363 4.14.1.575.35 1.113.724 1.56 3.403 4.193 7.588 13.505 11.55 19.209 2.972 4.278 5.263 6.112 7.382 6.953 1.518.605 3.2 1.75 4.252.823 1.42-1.242 5.053-9.207 8.323-12.31 6.643-6.294 10.133-8.08 14.185-10.13z" fill="#87DDF4" fill-rule="nonzero" opacity=".2"/><path d="M444.318 134.024c-.993-.188-1.522.168-1.504 1.608.012 1.34 1.466 2.096 2.02 2.225 2.606.602 20.435.95 34.517-6.209 2.061-1.044 2.754-3.038 1.52-2.504-4.421 1.929-29.962 6.125-36.553 4.88z" fill="#F1F1F1" fill-rule="nonzero"/><path d="M480.638 139.023c-.278 3.176-.12 9.041 5.661 9.547 5.781.506 10.937-4.211 11.215-7.386.278-3.176-3.825-10.036-9.646-10.545-5.82-.51-6.952 5.21-7.23 8.384z" stroke="#E9F0F4" stroke-width="4" fill="#F9F9F9" fill-rule="nonzero"/><path d="M496.97 106.272c11.01 26.348-31.55 35.712-42.45 35.361-35.701-1.126-37.54-20.782-35.667-42.195 1.873-21.413 20.876-37.255 42.452-35.368 21.576 1.888 27.309 22.211 35.666 42.202z" fill="#87DDF4" fill-rule="nonzero" opacity=".2"/><path d="M459.02 157.705c-1.206 2.826.425 4.863 2.996 5.617 3.855 1.174 7.152-.512 6.76-4.764-.382-3.043-2.634-5.623-5.765-6.602-10.282-2.92-3.145 3.815-3.991 5.749z" stroke="#E9F0F4" stroke-width="4" fill="#FFF" fill-rule="nonzero"/><path d="M446.773 141.176c.69-.447 3.743 1.815 4.05 4.775.595 5.237-7.582 10.104-7.783 9.87-.2-.233 3.763-2.5 4.579-6.995.74-4.078-1.55-7.184-.846-7.65zM486.743 149.523c-.189.796-3.92 1.497-6.183-.252-4.003-3.097-1.434-12.357-1.13-12.344.304.013-1.005 4.44 1.478 8.062 2.241 3.286 6.027 3.705 5.835 4.534z" fill="#F1F1F1" fill-rule="nonzero"/><path d="M441.735 74.596c-2.52-1.951-16.53 7.058-17.216 17.481-.16 2.545.38 6.579 2.14 7.084 1.373.376 5.852-1.122 5.376-4.592-1.56-11.626 12.253-17.997 9.7-19.973zM470.458 129.393c.32 2.403 13.675.066 20.137-7.955 1.564-1.956 2.515-4.868 1.78-5.854-.574-.764-2.372-1.634-4.693 1.326-6.838 8.742-17.547 10.046-17.224 12.483z" fill="#FFF" fill-rule="nonzero" opacity=".8" style="mix-blend-mode:lighten"/><path d="M445.807 147.035c-.277 3.17-1.451 8.908-7.232 8.402-5.78-.506-10.04-6.037-9.762-9.213.278-3.176 5.51-9.228 11.331-8.719 5.82.51 5.94 6.361 5.663 9.53z" stroke="#E9F0F4" stroke-width="4" fill="#F9F9F9" fill-rule="nonzero"/><path d="M436.387 145.225c-.483-.373-2.248 3.864-1.96 7.302.126 1.454.63 2.955 1.071 2.564.896-.794 1.503-9.383.89-9.866zM440.372 145.574c-.483-.374-2.248 3.864-1.96 7.302.125 1.454.63 2.955 1.071 2.564.896-.794 1.503-9.383.89-9.866zM487.243 137.628c-.484-.373-2.248 3.864-1.96 7.303.125 1.454.629 2.954 1.071 2.564.896-.795 1.502-9.384.889-9.867zM490.319 136.894c-.484-.373-2.249 3.864-1.96 7.302.125 1.454.629 2.955 1.07 2.564.896-.794 1.503-9.383.89-9.866z" fill="#E9F0F4" fill-rule="nonzero"/><path d="M458.947 32.756c-1.076-.582-1.807 16.335-4.51 27.184-.272 1.096 3.715.4 3.715.4 5.287.497 2.12-26.843.795-27.584zM409.964 74.912c.489 2.292 2.636 5.34 4.198 7.195.967 1.17 2.962 3.27 5.508 3.414 1.517.09 2.312-2.78 2.665-3.662 1.436-3.482-12.634-8.278-12.371-6.947zM480.934 62.791c1.367.448 2.765 7.603.972 8.068-.89.244-4.953-2.273-3.941-2.988 3.176-2.15 1.91-5.433 2.969-5.08zM433.347 61.835c1.114-.801 6.993 1.875 6.548 3.49-.218.802-4.639 2.27-4.781 1.106-.418-3.52-2.6-3.946-1.767-4.596z" fill="#FFF" fill-rule="nonzero" opacity=".8" style="mix-blend-mode:lighten"/></g><g><path d="M380.948 129c-1.214 7.062-11.032 10.98-19.084 11.43-8.051.45-11.263-6.293-11.263-6.293s-7.51-12.04 6.77-19.194 24.791 6.996 23.577 14.058z" fill="#FFC107"/><path d="M360.854 128.39s-8.685 2.96-10.25 2.49c-1.565-.468-1.764-1.627-1.764-1.627s-1.112-4.822 1.13-8.485c2.241-3.662 10.884 7.623 10.884 7.623z" fill="#F9B405"/><g transform="rotate(-12 219.8 -1482.345)"><path d="M32.51 133.65c.317 0 27.12-23.421 27.12-52.313 0-28.89-18.851-52.312-27.12-52.312-8.268 0-27.751 23.421-27.751 52.313 0 28.89 27.435 52.312 27.752 52.312z" fill="#FFC107"/><ellipse stroke="#C7254E" stroke-width="1.012" cx="32.511" cy="5.737" rx="5.957" ry="5.737"/><path d="M34.147 33.075s8.295 22.674 8.965 47.386c.67 24.71-6.27 48.487-8.965 51.982-5.56 7.21 20.3-21.367 18.638-50.54-1.66-29.174-18.638-48.828-18.638-48.828z" fill="#F5871E"/><path d="M33.71 33.075s7.271 22.674 7.86 47.386c.587 24.71-5.498 48.487-7.86 51.982-4.875 7.21 17.796-21.367 16.34-50.54-1.457-29.174-16.34-48.828-16.34-48.828z" fill="#E57B17"/><path d="M31.652 33.075s-8.295 22.674-8.966 47.386c-.67 24.71 6.27 48.487 8.966 51.982 5.56 7.21-20.3-21.367-18.639-50.54 1.661-29.174 18.639-48.828 18.639-48.828z" fill="#F5871E"/><path d="M32.116 33.177S25.4 55.75 24.73 80.461c-.67 24.71 6.27 48.487 8.965 51.982 5.56 7.21-20.3-21.367-18.638-50.54 1.66-29.174 17.06-48.726 17.06-48.726z" fill="#E57B17"/><path d="M26.092 31.525S8.485 54.25 7.815 78.961c-.67 24.71 15.583 47.351 18.277 50.846 5.561 7.21-23.25-20.859-21.59-50.032 1.662-29.173 21.59-48.25 21.59-48.25zM37.48 29.025s17.607 22.724 18.277 47.436c.67 24.71-15.582 47.351-18.277 50.846-5.561 7.21 23.25-20.859 21.59-50.032-1.662-29.173-21.59-48.25-21.59-48.25z" fill="#F9B405"/><ellipse fill="#554D8B" transform="matrix(1 0 0 -1 0 61.425)" cx="32.17" cy="30.712" rx="12.085" ry="3.375"/><ellipse fill="#38335F" transform="matrix(1 0 0 -1 0 61.425)" cx="32.34" cy="30.712" rx="5.787" ry="2.025"/><path fill="#F85C5B" d="M31.319 5.737h2.723v24.975h-2.723z"/><ellipse fill="#554D8B" cx="32.511" cy="18.225" rx="5.957" ry="1.35"/><ellipse fill="#38335F" cx="32.681" cy="18.056" rx="3.404" ry="1"/><ellipse fill="#E23E57" cx="32.681" cy="6.075" rx="3.404" ry="3.375"/><path fill="#F85C5B" d="M31.319 15.525h2.723v2.7h-2.723z"/><path d="M16.418 112.83s33.218-3.8 33.999 1.06c.78 4.86-9.77 20.607-18.262 20.607s-18.196-18.49-18.196-19.874c0-1.385 2.459-1.794 2.459-1.794z" fill="#554D8B"/><path d="M19.085 118.81s27.885-2.75 28.54.769c.655 3.518-8.2 14.918-15.33 14.918-7.128 0-15.274-13.386-15.274-14.388 0-1.003 2.064-1.298 2.064-1.298z" fill="#383565"/><path d="M22.654 125.781s20.914-1.528 21.405.427c.492 1.955-6.15 8.29-11.497 8.29-5.347 0-11.456-7.439-11.456-7.996 0-.557 1.548-.721 1.548-.721z" fill="#2F2D57"/><ellipse stroke="#AD8ABB" stroke-width=".5" fill="#F8CF1C" cx="21.617" cy="115.931" rx="1.532" ry="1.519"/><ellipse stroke="#AD8ABB" stroke-width=".5" fill="#F8CF1C" cx="33.191" cy="114.581" rx="1.532" ry="1.519"/><ellipse stroke="#AD8ABB" stroke-width=".5" fill="#F8CF1C" cx="44.085" cy="115.256" rx="1.532" ry="1.519"/><path d="M32.554 45.04s9.434 8.245 9.434 20.475c0 12.229 4.896 34.949.682 32.55-4.214-2.4-4.213-21.768-7.619-16.23-3.405 5.538-6.26 14.514-9.41 14.514-3.15 0-10.203-8.607-3.143-29.959 7.06-21.35 10.056-21.35 10.056-21.35z" fill-opacity=".2" fill="#E0AE18" style="mix-blend-mode:multiply"/><path d="M29.355 54.675S14.679 93.015 19.274 97.09c4.595 4.074 10.08-42.415 10.08-42.415zM36.085 54.675s14.676 38.34 10.081 42.415c-4.595 4.074-10.08-42.415-10.08-42.415z" fill="#554D8B"/><path d="M36.085 54.675s11.268 38.337 9.404 42.492c-.784 1.75-3.369-5.356-5.18-14.349-1.812-8.993-4.224-28.143-4.224-28.143zM29.357 54.675S18.09 93.012 19.953 97.167c.784 1.75 3.369-5.356 5.18-14.349 1.812-8.993 4.224-28.143 4.224-28.143z" fill="#463F76"/><g transform="translate(55.149 63.788)" fill="#F85C5B"><ellipse cx="4.426" cy="12.15" rx="4.426" ry="12.15"/><path d="M4.426 24.3C6.87 24.3 6.87 0 4.426 0 1.98 0 0 5.44 0 12.15S1.981 24.3 4.426 24.3z" fill-opacity=".3" style="mix-blend-mode:multiply"/></g><g transform="matrix(-1 0 0 1 9.184 63.788)" fill="#F85C5B"><ellipse cx="4.426" cy="12.15" rx="4.426" ry="12.15"/><path d="M4.426 24.3C6.87 24.3 6.87 0 4.426 0 1.98 0 0 5.44 0 12.15S1.981 24.3 4.426 24.3z" fill-opacity=".3" style="mix-blend-mode:multiply"/></g></g><path d="M365.381 139.963c.073-.135-5.691-3.35-8.397-6.347-2.706-2.997-3.774-3.38-4.022-1.953-.249 1.426.161 4.138 4.311 6.485 4.15 2.348 8.035 1.951 8.108 1.815z" fill="#F9B405"/><path d="M364.913 139.926s-6.108-2.244-8.566-4.967c-2.458-2.723-2.064-3.835-2.29-2.54-.226 1.296.147 3.76 3.916 5.892 3.77 2.132 6.94 1.615 6.94 1.615z" fill="#383565"/><g><path d="M314 160c0 3.181.669 9 6.464 9 5.796 0 10.536-5.139 10.536-8.327 0-3.188-4.68-9.673-10.516-9.673S314 156.819 314 160zM347 157c0 3.181.67 9 6.472 9 5.803 0 10.528-5.139 10.528-8.327 0-3.188-4.685-9.673-10.528-9.673-5.843 0-6.472 5.819-6.472 9z" stroke="#E9F0F4" stroke-width="4" fill="#F9F9F9" fill-rule="nonzero"/><path d="M315.253 155.003c-.88.154-2.072 4.345-.447 7.008 2.879 4.758 13.174 2.495 13.194 2.151 0-.238-4.904.834-8.534-2.242-3.278-2.712-3.319-7.057-4.213-6.917zM358.346 151.005c.879-.155 3.253 3.051 2.513 5.88-1.312 5.007-11.725 6.384-11.856 6.074-.132-.31 4.895-.871 7.415-4.678 2.28-3.415 1.012-7.12 1.928-7.276z" fill="#F1F1F1" fill-rule="nonzero"/><path d="M358 143.666c0 15.827-4.588 20.334-21.258 20.334-16.67 0-25.742-4.663-25.742-20.483S321.615 123 338.258 123C354.9 123 358 127.846 358 143.666z" stroke="#E9F0F4" stroke-width="4" fill="#F9F9F9" fill-rule="nonzero"/><path d="M314.382 134.168c-1.005-.1-1.5.3-1.358 1.733.13 1.333 1.643 1.96 2.207 2.04 2.648.373 20.44-.833 33.844-9.193 1.963-1.22 2.479-3.267 1.297-2.627-4.237 2.307-29.315 8.713-35.99 8.047z" fill="#F1F1F1" fill-rule="nonzero"/><path d="M352 135.983c0 3.187.67 9.017 6.472 9.017 5.803 0 10.528-5.149 10.528-8.336 0-3.187-4.685-9.664-10.528-9.664-5.843 0-6.472 5.796-6.472 8.983z" stroke="#E9F0F4" stroke-width="4" fill="#F9F9F9" fill-rule="nonzero"/><path d="M358.627 105.238c8.884 23.576-27.907 31.222-37.247 30.74-30.666-1.56-31.804-19.044-29.721-38.042 2.083-18.997 18.768-32.755 37.247-30.74 18.478 2.014 22.982 20.152 29.721 38.042z" fill="#F9F9F9" fill-rule="nonzero"/><path d="M276 61.583l-2.322 1.2c-.663.345-1.502.274-2.079-.179-.576-.452-.758-1.183-.452-1.809l2.36-4.795" fill="#F7F0F4" fill-rule="nonzero"/><path d="M321.506 57.326a21.144 21.144 0 0 0 .167 9.89c1.628 6.364 8.037 2.331 19.956 11.067 6.694 4.917 7.828-16.766 4.731-24.996-3.096-8.23-11.404-13.95-16.47-16.856a3.267 3.267 0 0 0-3.014-.12 3.232 3.232 0 0 0-1.814 2.396c-.8 4.78-2.171 12.546-3.556 18.619z" fill="#F5F5F5" fill-rule="nonzero"/><path d="M350.37 78c4.976-8.4-1.152-40.842-22.366-47.717-2.423-.782-5.01.055-5.431 2.54-.905 5.33-2.443 13.988-4.003 20.76a23.401 23.401 0 0 0 .186 11.035" stroke="#E9F0F4" stroke-width="4"/><path d="M282.362 77.831a22.158 22.158 0 0 0 5.274 8.163c8.423 8.55 6.585 1.585 19.08-3.96 9.516-4.223 1.175-15.072-5.684-20.358C290.962 53.908 274 56.371 274 56.371s5.26 12.427 8.362 21.46z" fill="#F5F5F5" fill-rule="nonzero"/><path d="M311 66.2c-2.832-9.236-24.424-21.773-43.535-11.123-2.183 1.217-3.285 3.645-1.75 5.619 3.291 4.24 7.246 13.578 11.059 19.325 4.806 7.255 7.841 7.594 11.384 7.979" stroke="#E9F0F4" stroke-width="4"/><path d="M363.373 106.859c10.416 26.365-32.157 34.695-43.03 34.113-35.518-1.911-36.945-21.434-34.636-42.62 2.308-21.188 21.562-36.463 43.03-34.114 21.467 2.35 26.733 22.62 34.636 42.621z" stroke="#E9F0F4" stroke-width="4"/><path d="M351.28 78.594c4.747-30.185-15.286-47.55-21.98-48.498-3.39-.477-4.645.982-4.645.982a3.39 3.39 0 0 0-.678 1.598c-.889 5.418-2.4 14.218-3.934 21.102-1.973 8.848-.78 10.772.563 10.315 2.713-.906 5.656.16 10.695 1.467 12.573 3.265 19.538 15.843 19.98 13.034zM310.754 66.618c3.293-1.568-27.239-25.135-44.275-11.263-2.682 2.184-2.475 4.108-2.475 4.108.085.578.322 1.124.687 1.581 3.328 4.294 7.377 13.75 11.255 19.549 2.908 4.368 5.183 6.258 7.3 7.155 1.52.643 3.198 1.835 4.277.917 1.464-1.225 5.308-9.127 8.683-12.18 6.875-6.163 10.409-7.895 14.548-9.867z" fill="#87DDF4" fill-rule="nonzero" opacity=".2"/><path d="M363.373 106.859c10.416 26.365-32.157 34.695-43.03 34.113-35.518-1.911-36.945-21.434-34.636-42.62 2.308-21.188 21.562-36.463 43.03-34.114 21.467 2.35 26.733 22.62 34.636 42.621z" fill="#87DDF4" fill-rule="nonzero" opacity=".2"/><path d="M333.648 158.546c.12 3.361 2.322 4.715 4.798 4.413 3.71-.463 5.8-3.575 3.749-7.723-1.552-2.913-4.498-4.55-7.532-4.186-9.814 1.42-1.101 5.15-1.015 7.496z" stroke="#E9F0F4" stroke-width="4" fill="#FFF" fill-rule="nonzero"/><path d="M317.452 141.079c.647-.506 3.886 1.481 4.45 4.404 1.05 5.165-6.672 10.726-6.893 10.511-.22-.215 3.53-2.818 3.952-7.368.382-4.127-2.17-7.021-1.51-7.547zM358.997 145.91c-.119.81-3.775 1.834-6.181.288-4.258-2.736-2.506-12.185-2.202-12.198.304-.013-.615 4.51 2.175 7.902 2.52 3.078 6.327 3.165 6.208 4.009z" fill="#F1F1F1" fill-rule="nonzero"/><path d="M307.63 75.192c-2.68-1.725-15.851 8.471-15.627 18.915.063 2.549.952 6.52 2.75 6.87 1.4.254 5.732-1.628 4.955-5.043-2.568-11.446 10.637-18.997 7.922-20.742zM341.02 127.276c.527 2.367 13.628-1.126 19.366-9.68 1.388-2.085 2.082-5.068 1.263-5.986-.638-.71-2.505-1.422-4.559 1.73-6.05 9.304-16.605 11.536-16.07 13.936z" fill="#FFF" fill-rule="nonzero" opacity=".8" style="mix-blend-mode:lighten"/><path d="M317.875 149.448c-1.182 2.988-3.968 8.222-9.56 6.03-5.592-2.193-8.219-8.757-7.037-11.744 1.182-2.988 8.122-7.318 13.714-5.146 5.592 2.172 4.065 7.866 2.883 10.86z" stroke="#E9F0F4" stroke-width="4" fill="#F9F9F9" fill-rule="nonzero"/><path d="M307.914 145.06c-.469-.548-3.422 2.71-3.854 6.094-.185 1.416.062 3.02.654 2.83 1.19-.42 3.792-8.233 3.2-8.923zM311.912 146.06c-.468-.548-3.42 2.71-3.852 6.094-.185 1.416.062 3.02.654 2.83 1.189-.42 3.796-8.233 3.198-8.923zM357.458 134.018c-.514-.33-1.903 4.045-1.316 7.445.252 1.437.884 2.889 1.29 2.46.824-.868.68-9.478.026-9.905zM361.458 133.018c-.514-.33-1.903 4.045-1.316 7.445.252 1.437.884 2.889 1.29 2.46.824-.868.68-9.478.026-9.905z" fill="#E9F0F4" fill-rule="nonzero"/><path d="M327.999 32.02c-1.06-.672-3.264 15.808-6.975 26.212-.377 1.048 3.808.719 3.808.719 5.378.92 4.478-26.104 3.167-26.931zM276.007 77.275c.687 2.241 3.092 5.09 4.81 6.802 1.064 1.08 3.235 3 5.784 2.92 1.519-.042 2.061-2.97 2.336-3.88 1.127-3.594-13.308-7.145-12.93-5.842zM345.65 60.015c1.401.327 3.418 7.333 1.673 7.953-.866.32-5.133-1.833-4.187-2.633 2.977-2.42 1.43-5.58 2.515-5.32zM298.162 63.21c1.04-.895 7.13 1.259 6.827 2.906-.147.818-4.423 2.666-4.667 1.518-.722-3.47-2.934-3.704-2.16-4.424zM269.931 56.1c-.428-.344-2.845.213-2.928 1.413-.048.643.488 1.79.94 1.412.453-.379.423-1.148.828-1.573.607-.677 1.482-.993 1.16-1.251z" fill="#FFF" fill-rule="nonzero" opacity=".8" style="mix-blend-mode:lighten"/></g></g><g><path d="M108.41 128.294c-2.656 6.654-13.075 8.445-21.044 7.211-7.97-1.233-9.709-8.497-9.709-8.497s-4.843-13.339 10.613-17.367c15.456-4.029 22.795 11.998 20.14 18.653z" fill="#FFC107"/><path d="M88.88 123.519s-9.11 1.089-10.543.304c-1.433-.784-1.387-1.958-1.387-1.958s-.085-4.949 2.87-8.065c2.953-3.116 9.06 9.719 9.06 9.719z" fill="#F9B405"/><g transform="translate(66 1)"><path d="M32.51 133.65c.317 0 27.12-23.421 27.12-52.313 0-28.89-18.851-52.312-27.12-52.312-8.268 0-27.751 23.421-27.751 52.313 0 28.89 27.435 52.312 27.752 52.312z" fill="#FFC107"/><ellipse stroke="#C7254E" stroke-width="1.012" cx="32.511" cy="5.737" rx="5.957" ry="5.737"/><path d="M34.147 33.075s8.295 22.674 8.965 47.386c.67 24.71-6.27 48.487-8.965 51.982-5.56 7.21 20.3-21.367 18.638-50.54-1.66-29.174-18.638-48.828-18.638-48.828z" fill="#F5871E"/><path d="M33.71 33.075s7.271 22.674 7.86 47.386c.587 24.71-5.498 48.487-7.86 51.982-4.875 7.21 17.796-21.367 16.34-50.54-1.457-29.174-16.34-48.828-16.34-48.828z" fill="#E57B17"/><path d="M31.652 33.075s-8.295 22.674-8.966 47.386c-.67 24.71 6.27 48.487 8.966 51.982 5.56 7.21-20.3-21.367-18.639-50.54 1.661-29.174 18.639-48.828 18.639-48.828z" fill="#F5871E"/><path d="M32.116 33.177S25.4 55.75 24.73 80.461c-.67 24.71 6.27 48.487 8.965 51.982 5.56 7.21-20.3-21.367-18.638-50.54 1.66-29.174 17.06-48.726 17.06-48.726z" fill="#E57B17"/><path d="M26.092 31.525S8.485 54.25 7.815 78.961c-.67 24.71 15.583 47.351 18.277 50.846 5.561 7.21-23.25-20.859-21.59-50.032 1.662-29.173 21.59-48.25 21.59-48.25zM37.48 29.025s17.607 22.724 18.277 47.436c.67 24.71-15.582 47.351-18.277 50.846-5.561 7.21 23.25-20.859 21.59-50.032-1.662-29.173-21.59-48.25-21.59-48.25z" fill="#F9B405"/><ellipse fill="#554D8B" transform="matrix(1 0 0 -1 0 61.425)" cx="32.17" cy="30.712" rx="12.085" ry="3.375"/><ellipse fill="#38335F" transform="matrix(1 0 0 -1 0 61.425)" cx="32.34" cy="30.712" rx="5.787" ry="2.025"/><path fill="#F85C5B" d="M31.319 5.737h2.723v24.975h-2.723z"/><ellipse fill="#554D8B" cx="32.511" cy="18.225" rx="5.957" ry="1.35"/><ellipse fill="#38335F" cx="32.681" cy="18.056" rx="3.404" ry="1"/><ellipse fill="#E23E57" cx="32.681" cy="6.075" rx="3.404" ry="3.375"/><path fill="#F85C5B" d="M31.319 15.525h2.723v2.7h-2.723z"/><path d="M16.418 112.83s33.218-3.8 33.999 1.06c.78 4.86-9.77 20.607-18.262 20.607s-18.196-18.49-18.196-19.874c0-1.385 2.459-1.794 2.459-1.794z" fill="#554D8B"/><path d="M19.085 118.81s27.885-2.75 28.54.769c.655 3.518-8.2 14.918-15.33 14.918-7.128 0-15.274-13.386-15.274-14.388 0-1.003 2.064-1.298 2.064-1.298z" fill="#383565"/><path d="M22.654 125.781s20.914-1.528 21.405.427c.492 1.955-6.15 8.29-11.497 8.29-5.347 0-11.456-7.439-11.456-7.996 0-.557 1.548-.721 1.548-.721z" fill="#2F2D57"/><ellipse stroke="#AD8ABB" stroke-width=".5" fill="#F8CF1C" cx="21.617" cy="115.931" rx="1.532" ry="1.519"/><ellipse stroke="#AD8ABB" stroke-width=".5" fill="#F8CF1C" cx="33.191" cy="114.581" rx="1.532" ry="1.519"/><ellipse stroke="#AD8ABB" stroke-width=".5" fill="#F8CF1C" cx="44.085" cy="115.256" rx="1.532" ry="1.519"/><path d="M32.554 45.04s9.434 8.245 9.434 20.475c0 12.229 4.896 34.949.682 32.55-4.214-2.4-4.213-21.768-7.619-16.23-3.405 5.538-6.26 14.514-9.41 14.514-3.15 0-10.203-8.607-3.143-29.959 7.06-21.35 10.056-21.35 10.056-21.35z" fill-opacity=".2" fill="#E0AE18" style="mix-blend-mode:multiply"/><path d="M29.355 54.675S14.679 93.015 19.274 97.09c4.595 4.074 10.08-42.415 10.08-42.415zM36.085 54.675s14.676 38.34 10.081 42.415c-4.595 4.074-10.08-42.415-10.08-42.415z" fill="#554D8B"/><path d="M36.085 54.675s11.268 38.337 9.404 42.492c-.784 1.75-3.369-5.356-5.18-14.349-1.812-8.993-4.224-28.143-4.224-28.143zM29.357 54.675S18.09 93.012 19.953 97.167c.784 1.75 3.369-5.356 5.18-14.349 1.812-8.993 4.224-28.143 4.224-28.143z" fill="#463F76"/><g transform="translate(55.149 63.788)" fill="#F85C5B"><ellipse cx="4.426" cy="12.15" rx="4.426" ry="12.15"/><path d="M4.426 24.3C6.87 24.3 6.87 0 4.426 0 1.98 0 0 5.44 0 12.15S1.981 24.3 4.426 24.3z" fill-opacity=".3" style="mix-blend-mode:multiply"/></g><g transform="matrix(-1 0 0 1 9.184 63.788)" fill="#F85C5B"><ellipse cx="4.426" cy="12.15" rx="4.426" ry="12.15"/><path d="M4.426 24.3C6.87 24.3 6.87 0 4.426 0 1.98 0 0 5.44 0 12.15S1.981 24.3 4.426 24.3z" fill-opacity=".3" style="mix-blend-mode:multiply"/></g></g><path d="M90.903 135.78c.1-.117-4.87-4.46-6.894-7.954-2.024-3.495-2.989-4.09-3.528-2.748-.54 1.344-.702 4.082 2.868 7.24 3.571 3.16 7.454 3.58 7.554 3.462z" fill="#F9B405"/><path d="M90.453 135.646s-5.508-3.465-7.346-6.64c-1.839-3.174-1.222-4.18-1.712-2.96-.49 1.22-.638 3.708 2.605 6.578 3.244 2.87 6.453 3.022 6.453 3.022z" fill="#383565"/></g><g><path d="M44 160c0 3.181.669 9 6.464 9C56.26 169 61 163.861 61 160.673c0-3.188-4.68-9.673-10.516-9.673S44 156.819 44 160zM77 157c0 3.181.67 9 6.472 9C89.275 166 94 160.861 94 157.673c0-3.188-4.685-9.673-10.528-9.673-5.843 0-6.472 5.819-6.472 9z" stroke="#E9F0F4" stroke-width="4" fill="#F9F9F9" fill-rule="nonzero"/><path d="M46.253 155.003c-.88.154-2.072 4.345-.447 7.008 2.879 4.758 13.174 2.495 13.194 2.151 0-.238-4.904.834-8.534-2.242-3.278-2.712-3.319-7.057-4.213-6.917zM89.346 151.005c.879-.155 3.253 3.051 2.513 5.88-1.312 5.007-11.725 6.384-11.856 6.074-.132-.31 4.895-.871 7.415-4.678 2.28-3.415 1.012-7.12 1.928-7.276z" fill="#F1F1F1" fill-rule="nonzero"/><path d="M89 143.666C89 159.493 84.412 164 67.742 164 51.072 164 42 159.337 42 143.517S52.615 123 69.258 123C85.9 123 89 127.846 89 143.666z" stroke="#E9F0F4" stroke-width="4" fill="#F9F9F9" fill-rule="nonzero"/><path d="M46.382 134.168c-1.005-.1-1.5.3-1.358 1.733.13 1.333 1.643 1.96 2.207 2.04 2.648.373 20.44-.833 33.844-9.193 1.963-1.22 2.479-3.267 1.297-2.627-4.237 2.307-29.315 8.713-35.99 8.047z" fill="#F1F1F1" fill-rule="nonzero"/><path d="M82 135.983c0 3.187.67 9.017 6.472 9.017C94.275 145 99 139.851 99 136.664c0-3.187-4.685-9.664-10.528-9.664-5.843 0-6.472 5.796-6.472 8.983z" stroke="#E9F0F4" stroke-width="4" fill="#F9F9F9" fill-rule="nonzero"/><path d="M90.477 112.258c5.354 24.78-31.927 27.085-41.066 25.257-29.938-5.982-28.554-23.54-23.782-42.233C30.4 76.59 48.815 65.387 66.722 70.06c17.907 4.674 19.717 23.401 23.755 42.198z" fill="#F9F9F9" fill-rule="nonzero"/><path d="M15 56.917l-2.02.963c-.575.263-1.236.084-1.639-.445a1.752 1.752 0 0 1-.128-1.878L13.746 51" fill="#F7F0F4" fill-rule="nonzero"/><path d="M61.393 59.257a21.352 21.352 0 0 0-1.272 9.853c.695 6.56 7.615 3.475 18.137 13.898 5.919 5.83 10.175-15.586 8.29-24.19-1.884-8.602-9.25-15.516-13.84-19.123a3.25 3.25 0 0 0-5.104 1.57c-1.481 4.615-3.957 12.154-6.21 17.992z" fill="#F5F5F5" fill-rule="nonzero"/><path d="M86.827 83c6.013-7.61 4.724-40.603-14.846-50.413-2.233-1.124-4.852-.681-5.614 1.744-1.633 5.15-4.36 13.51-6.836 19.995a23.944 23.944 0 0 0-1.397 10.954" stroke="#E9F0F4" stroke-width="4"/><path d="M19.183 73.355a21.947 21.947 0 0 0 4.062 8.812c7.149 9.638 6.324 2.5 19.577-1.187 10.09-2.806 3.36-14.695-2.702-20.89C31.22 50.993 14 51 14 51s3.41 13.028 5.183 22.355z" fill="#F5F5F5" fill-rule="nonzero"/><path d="M49 65.525c-1.524-9.606-21.757-25.243-42.906-17.39-2.412.9-3.901 3.165-2.629 5.355 2.74 4.708 5.398 14.607 8.446 20.897C15.756 82.33 18.818 83.1 22.398 84" stroke="#E9F0F4" stroke-width="4"/><path d="M94.326 113.701c6.6 27.745-37.192 29.81-47.956 27.683-35.259-7.046-33.878-26.658-28.472-47.418 5.406-20.76 26.85-33.125 47.956-27.682C86.959 71.726 89.32 92.673 94.326 113.7z" stroke="#E9F0F4" stroke-width="4"/><path d="M87.509 82.648c8.895-28.658-8.396-48.426-14.86-50.288-3.269-.952-4.728.285-4.728.285a3.298 3.298 0 0 0-.918 1.434c-1.635 5.138-4.364 13.476-6.842 19.945-3.188 8.318-2.277 10.357-.892 10.106 2.77-.496 5.552.971 10.334 2.963 11.982 4.988 17.082 18.226 17.906 15.555zM48.688 66.226c3.52-1.084-23.559-28.828-42.612-17.523-3 1.784-3.076 3.72-3.076 3.72a3.3 3.3 0 0 0 .465 1.668c2.722 4.736 5.36 14.696 8.388 21.024 2.27 4.75 4.27 6.953 6.25 8.147 1.423.858 2.922 2.28 4.165 1.524 1.639-1.016 6.638-8.319 10.45-10.852 7.728-5.147 11.547-6.349 15.97-7.708z" fill="#87DDF4" fill-rule="nonzero" opacity=".2"/><path d="M94.33 113.687c6.575 27.726-37.198 29.839-47.977 27.691-35.266-7.048-33.837-26.665-28.471-47.405 5.365-20.739 26.869-33.136 47.978-27.69 21.11 5.444 23.465 26.369 28.47 47.404z" fill="#87DDF4" fill-rule="nonzero" opacity=".2"/><path d="M63.648 158.546c.12 3.361 2.322 4.715 4.798 4.413 3.71-.463 5.8-3.575 3.749-7.723-1.552-2.913-4.498-4.55-7.532-4.186-9.814 1.42-1.101 5.15-1.015 7.496z" stroke="#E9F0F4" stroke-width="4" fill="#FFF" fill-rule="nonzero"/><path d="M49.452 141.079c.647-.506 3.886 1.481 4.45 4.404 1.05 5.165-6.672 10.726-6.893 10.511-.22-.215 3.53-2.818 3.952-7.368.382-4.127-2.17-7.021-1.51-7.547zM88.997 145.91c-.119.81-3.775 1.834-6.181.288-4.258-2.736-2.506-12.185-2.202-12.198.304-.013-.615 4.51 2.175 7.902 2.52 3.078 6.327 3.165 6.208 4.009z" fill="#F1F1F1" fill-rule="nonzero"/><path d="M37.63 75.192c-2.68-1.725-15.851 8.471-15.627 18.915.063 2.549.952 6.52 2.75 6.87 1.4.254 5.732-1.628 4.955-5.043-2.568-11.446 10.637-18.997 7.922-20.742zM71.02 127.276c.527 2.367 13.628-1.126 19.366-9.68 1.388-2.085 2.082-5.068 1.263-5.986-.638-.71-2.505-1.422-4.559 1.73-6.05 9.304-16.605 11.536-16.07 13.936z" fill="#FFF" fill-rule="nonzero" opacity=".8" style="mix-blend-mode:lighten"/><path d="M47.26 150.57c-1.935 2.453-6.01 6.576-10.74 3.084-4.732-3.492-5.47-10.22-3.501-12.672 1.969-2.453 9.721-4.649 14.452-1.197 4.731 3.453 1.73 8.332-.212 10.785z" stroke="#E9F0F4" stroke-width="4" fill="#F9F9F9" fill-rule="nonzero"/><path d="M38.969 144.109c-.385-.614-4.865 1.45-6.391 4.244-.65 1.185-.846 2.653-.091 2.647 1.526-.012 6.973-6.123 6.482-6.891zM42.969 147.109c-.385-.614-4.865 1.45-6.391 4.244-.65 1.185-.846 2.653-.091 2.647 1.526-.043 6.973-6.123 6.482-6.891zM88.458 134.018c-.514-.33-1.903 4.045-1.316 7.445.252 1.437.884 2.889 1.29 2.46.824-.868.68-9.478.026-9.905zM91.458 133.018c-.514-.33-1.903 4.045-1.316 7.445.252 1.437.884 2.889 1.29 2.46.824-.868.68-9.478.026-9.905z" fill="#E9F0F4" fill-rule="nonzero"/><path d="M69.728 36.029c-.967-.812-5.494 15.617-10.683 25.673-.523 1.012 3.72 1.226 3.72 1.226 5.31 1.665 8.163-25.922 6.963-26.899zM14.028 68.132c-.225 2.26.961 5.753 1.875 7.936.58 1.386 1.862 3.937 4.222 4.852 1.405.547 2.967-1.858 3.567-2.55 2.353-2.746-9.535-11.548-9.664-10.238zM75.65 60.015c1.401.327 3.418 7.333 1.673 7.953-.866.32-5.133-1.833-4.187-2.633 2.977-2.42 1.43-5.58 2.515-5.32zM28.162 63.21c1.04-.895 7.13 1.259 6.827 2.906-.147.818-4.423 2.666-4.667 1.518-.722-3.47-2.934-3.704-2.16-4.424zM8.931 51.1c-.428-.344-2.845.213-2.928 1.413-.048.643.488 1.79.94 1.412.453-.379.423-1.148.828-1.573.607-.677 1.482-.993 1.16-1.251z" fill="#FFF" fill-rule="nonzero" opacity=".8" style="mix-blend-mode:lighten"/></g><g><path d="M229.093 130.36c-3.664 6.158-14.235 6.297-21.913 3.832-7.678-2.465-8.26-9.912-8.26-9.912s-2.696-13.932 13.2-15.493c15.895-1.561 20.637 15.416 16.973 21.574z" fill="#FFC107"/><path d="M210.551 122.59s-9.168-.35-10.461-1.349c-1.293-.998-1.063-2.151-1.063-2.151s.69-4.901 4.095-7.517c3.405-2.616 7.43 11.017 7.43 11.017z" fill="#F9B405"/><g transform="rotate(9 116.266 1314.846)"><path d="M32.51 133.65c.317 0 27.12-23.421 27.12-52.313 0-28.89-18.851-52.312-27.12-52.312-8.268 0-27.751 23.421-27.751 52.313 0 28.89 27.435 52.312 27.752 52.312z" fill="#FFC107"/><ellipse stroke="#C7254E" stroke-width="1.012" cx="32.511" cy="5.737" rx="5.957" ry="5.737"/><path d="M34.147 33.075s8.295 22.674 8.965 47.386c.67 24.71-6.27 48.487-8.965 51.982-5.56 7.21 20.3-21.367 18.638-50.54-1.66-29.174-18.638-48.828-18.638-48.828z" fill="#F5871E"/><path d="M33.71 33.075s7.271 22.674 7.86 47.386c.587 24.71-5.498 48.487-7.86 51.982-4.875 7.21 17.796-21.367 16.34-50.54-1.457-29.174-16.34-48.828-16.34-48.828z" fill="#E57B17"/><path d="M31.652 33.075s-8.295 22.674-8.966 47.386c-.67 24.71 6.27 48.487 8.966 51.982 5.56 7.21-20.3-21.367-18.639-50.54 1.661-29.174 18.639-48.828 18.639-48.828z" fill="#F5871E"/><path d="M32.116 33.177S25.4 55.75 24.73 80.461c-.67 24.71 6.27 48.487 8.965 51.982 5.56 7.21-20.3-21.367-18.638-50.54 1.66-29.174 17.06-48.726 17.06-48.726z" fill="#E57B17"/><path d="M26.092 31.525S8.485 54.25 7.815 78.961c-.67 24.71 15.583 47.351 18.277 50.846 5.561 7.21-23.25-20.859-21.59-50.032 1.662-29.173 21.59-48.25 21.59-48.25zM37.48 29.025s17.607 22.724 18.277 47.436c.67 24.71-15.582 47.351-18.277 50.846-5.561 7.21 23.25-20.859 21.59-50.032-1.662-29.173-21.59-48.25-21.59-48.25z" fill="#F9B405"/><ellipse fill="#554D8B" transform="matrix(1 0 0 -1 0 61.425)" cx="32.17" cy="30.712" rx="12.085" ry="3.375"/><ellipse fill="#38335F" transform="matrix(1 0 0 -1 0 61.425)" cx="32.34" cy="30.712" rx="5.787" ry="2.025"/><path fill="#F85C5B" d="M31.319 5.737h2.723v24.975h-2.723z"/><ellipse fill="#554D8B" cx="32.511" cy="18.225" rx="5.957" ry="1.35"/><ellipse fill="#38335F" cx="32.681" cy="18.056" rx="3.404" ry="1"/><ellipse fill="#E23E57" cx="32.681" cy="6.075" rx="3.404" ry="3.375"/><path fill="#F85C5B" d="M31.319 15.525h2.723v2.7h-2.723z"/><path d="M16.418 112.83s33.218-3.8 33.999 1.06c.78 4.86-9.77 20.607-18.262 20.607s-18.196-18.49-18.196-19.874c0-1.385 2.459-1.794 2.459-1.794z" fill="#554D8B"/><path d="M19.085 118.81s27.885-2.75 28.54.769c.655 3.518-8.2 14.918-15.33 14.918-7.128 0-15.274-13.386-15.274-14.388 0-1.003 2.064-1.298 2.064-1.298z" fill="#383565"/><path d="M22.654 125.781s20.914-1.528 21.405.427c.492 1.955-6.15 8.29-11.497 8.29-5.347 0-11.456-7.439-11.456-7.996 0-.557 1.548-.721 1.548-.721z" fill="#2F2D57"/><ellipse stroke="#AD8ABB" stroke-width=".5" fill="#F8CF1C" cx="21.617" cy="115.931" rx="1.532" ry="1.519"/><ellipse stroke="#AD8ABB" stroke-width=".5" fill="#F8CF1C" cx="33.191" cy="114.581" rx="1.532" ry="1.519"/><ellipse stroke="#AD8ABB" stroke-width=".5" fill="#F8CF1C" cx="44.085" cy="115.256" rx="1.532" ry="1.519"/><path d="M32.554 45.04s9.434 8.245 9.434 20.475c0 12.229 4.896 34.949.682 32.55-4.214-2.4-4.213-21.768-7.619-16.23-3.405 5.538-6.26 14.514-9.41 14.514-3.15 0-10.203-8.607-3.143-29.959 7.06-21.35 10.056-21.35 10.056-21.35z" fill-opacity=".2" fill="#E0AE18" style="mix-blend-mode:multiply"/><path d="M29.355 54.675S14.679 93.015 19.274 97.09c4.595 4.074 10.08-42.415 10.08-42.415zM36.085 54.675s14.676 38.34 10.081 42.415c-4.595 4.074-10.08-42.415-10.08-42.415z" fill="#554D8B"/><path d="M36.085 54.675s11.268 38.337 9.404 42.492c-.784 1.75-3.369-5.356-5.18-14.349-1.812-8.993-4.224-28.143-4.224-28.143zM29.357 54.675S18.09 93.012 19.953 97.167c.784 1.75 3.369-5.356 5.18-14.349 1.812-8.993 4.224-28.143 4.224-28.143z" fill="#463F76"/><g transform="translate(55.149 63.788)" fill="#F85C5B"><ellipse cx="4.426" cy="12.15" rx="4.426" ry="12.15"/><path d="M4.426 24.3C6.87 24.3 6.87 0 4.426 0 1.98 0 0 5.44 0 12.15S1.981 24.3 4.426 24.3z" fill-opacity=".3" style="mix-blend-mode:multiply"/></g><g transform="matrix(-1 0 0 1 9.184 63.788)" fill="#F85C5B"><ellipse cx="4.426" cy="12.15" rx="4.426" ry="12.15"/><path d="M4.426 24.3C6.87 24.3 6.87 0 4.426 0 1.98 0 0 5.44 0 12.15S1.981 24.3 4.426 24.3z" fill-opacity=".3" style="mix-blend-mode:multiply"/></g></g><path d="M210.63 135.016c.118-.1-4.112-5.167-5.564-8.935-1.453-3.768-2.312-4.507-3.055-3.265-.743 1.242-1.332 3.921 1.7 7.6 3.034 3.679 6.803 4.7 6.92 4.6z" fill="#F9B405"/><path d="M210.207 134.813s-4.898-4.284-6.217-7.706c-1.32-3.423-.553-4.32-1.228-3.192-.675 1.129-1.21 3.562 1.545 6.904s5.9 3.994 5.9 3.994z" fill="#383565"/><g><path d="M174 160c0 3.181.669 9 6.464 9 5.796 0 10.536-5.139 10.536-8.327 0-3.188-4.68-9.673-10.516-9.673S174 156.819 174 160zM206 157c0 3.181.67 9 6.472 9 5.803 0 10.528-5.139 10.528-8.327 0-3.188-4.685-9.673-10.528-9.673-5.843 0-6.472 5.819-6.472 9z" stroke="#E9F0F4" stroke-width="4" fill="#F9F9F9" fill-rule="nonzero"/><path d="M175.253 155.003c-.88.154-2.072 4.345-.447 7.008 2.879 4.758 13.174 2.495 13.194 2.151 0-.238-4.904.834-8.534-2.242-3.278-2.712-3.319-7.057-4.213-6.917zM218.346 151.005c.879-.155 3.253 3.051 2.513 5.88-1.312 5.007-11.725 6.384-11.856 6.074-.132-.31 4.895-.871 7.415-4.678 2.28-3.415 1.012-7.12 1.928-7.276z" fill="#F1F1F1" fill-rule="nonzero"/><path d="M218 143.666c0 15.827-4.588 20.334-21.258 20.334-16.67 0-25.742-4.663-25.742-20.483S181.615 123 198.258 123C214.9 123 218 127.846 218 143.666z" stroke="#E9F0F4" stroke-width="4" fill="#F9F9F9" fill-rule="nonzero"/><path d="M174.382 134.168c-1.005-.1-1.5.3-1.358 1.733.13 1.333 1.643 1.96 2.207 2.04 2.648.373 20.44-.833 33.844-9.193 1.963-1.22 2.479-3.267 1.297-2.627-4.237 2.307-29.315 8.713-35.99 8.047z" fill="#F1F1F1" fill-rule="nonzero"/><path d="M211 135.983c0 3.187.67 9.017 6.472 9.017 5.803 0 10.528-5.149 10.528-8.336 0-3.187-4.685-9.664-10.528-9.664-5.843 0-6.472 5.796-6.472 8.983z" stroke="#E9F0F4" stroke-width="4" fill="#F9F9F9" fill-rule="nonzero"/><path d="M220.586 112.093c4.746 24.946-32.653 26.284-41.76 24.253-29.838-6.749-28.01-24.315-22.763-42.83 5.248-18.516 23.944-29.36 41.76-24.253 17.817 5.107 19.163 23.92 22.763 42.83z" fill="#F9F9F9" fill-rule="nonzero"/><path d="M146 55.002l-2.544.883c-.732.262-1.568.065-2.062-.485a1.473 1.473 0 0 1-.083-1.909L144.6 49" fill="#F7F0F4" fill-rule="nonzero"/><path d="M191.583 58.901a21.229 21.229 0 0 0-1.512 9.783c.527 6.544 7.503 3.645 17.723 14.271 5.748 5.97 10.526-15.22 8.876-23.846-1.65-8.627-8.834-15.676-13.32-19.37a3.244 3.244 0 0 0-5.124 1.445c-1.595 4.539-4.25 11.969-6.643 17.717z" fill="#F5F5F5" fill-rule="nonzero"/><path d="M217.447 84c6.231-7.535 5.75-40.912-13.642-51.353-2.217-1.192-4.862-.785-5.682 1.619-1.77 5.158-4.746 13.54-7.37 20.035a24.339 24.339 0 0 0-1.675 11.02" stroke="#E9F0F4" stroke-width="4"/><path d="M149.584 71.235a21.738 21.738 0 0 0 3.783 8.839c6.79 9.711 6.186 2.63 19.361-.671 10.038-2.53 3.688-14.463-2.139-20.745C162.066 49.423 145 49 145 49s3.063 12.953 4.584 22.235z" fill="#F5F5F5" fill-rule="nonzero"/><path d="M180 65.275c-1.254-9.642-20.8-25.74-41.84-18.426-2.405.837-3.929 3.062-2.757 5.273 2.578 4.763 4.948 14.698 7.788 21.046 3.66 8.015 6.623 8.859 10.11 9.832" stroke="#E9F0F4" stroke-width="4"/><path d="M224.456 114.662c5.911 27.889-38.038 28.914-48.768 26.477-35.165-7.938-33.226-27.538-27.329-48.115 5.898-20.578 27.759-32.454 48.768-26.478 21.009 5.976 22.843 26.96 27.329 48.116z" stroke="#E9F0F4" stroke-width="4"/><path d="M218.084 83.652c9.651-28.733-7.203-49.159-13.647-51.227-3.255-1.044-4.748.165-4.748.165-.434.388-.759.886-.942 1.443-1.77 5.146-4.748 13.507-7.373 19.986-3.391 8.327-2.55 10.41-1.153 10.196 2.794-.433 5.548 1.127 10.303 3.264 11.876 5.345 16.664 18.853 17.56 16.173zM179.682 64.997c3.49-.992-22.488-29.333-41.56-18.556-3.005 1.703-3.121 3.633-3.121 3.633a3.318 3.318 0 0 0 .417 1.676c2.56 4.79 4.914 14.78 7.733 21.163 2.122 4.79 4.031 7.034 5.961 8.272 1.369.89 2.826 2.34 4.044 1.622 1.643-.972 6.748-8.122 10.574-10.558 7.767-4.906 11.558-6 15.952-7.252z" fill="#87DDF4" fill-rule="nonzero" opacity=".2"/><path d="M224.456 114.662c5.911 27.889-38.038 28.914-48.768 26.477-35.165-7.938-33.226-27.538-27.329-48.115 5.898-20.578 27.759-32.454 48.768-26.478 21.009 5.976 22.843 26.96 27.329 48.116z" fill="#87DDF4" fill-rule="nonzero" opacity=".2"/><path d="M193.674 158.664c.79 3.106 3.236 3.865 5.63 3.007 3.586-1.285 5.043-4.666 2.184-8.06-2.112-2.354-5.347-3.208-8.279-2.185-9.465 3.584-.087 5.066.465 7.238z" stroke="#E9F0F4" stroke-width="4" fill="#FFF" fill-rule="nonzero"/><path d="M177.452 141.079c.647-.506 3.886 1.481 4.45 4.404 1.05 5.165-6.672 10.726-6.893 10.511-.22-.215 3.53-2.818 3.952-7.368.382-4.127-2.17-7.021-1.51-7.547zM217.997 145.91c-.119.81-3.775 1.834-6.181.288-4.258-2.736-2.506-12.185-2.202-12.198.304-.013-.615 4.51 2.175 7.902 2.52 3.078 6.327 3.165 6.208 4.009z" fill="#F1F1F1" fill-rule="nonzero"/><path d="M166.63 75.192c-2.68-1.725-15.851 8.471-15.627 18.915.063 2.549.952 6.52 2.75 6.87 1.4.254 5.732-1.628 4.955-5.043-2.568-11.446 10.637-18.997 7.922-20.742zM200.02 127.276c.527 2.367 13.628-1.126 19.366-9.68 1.388-2.085 2.082-5.068 1.263-5.986-.638-.71-2.505-1.422-4.559 1.73-6.05 9.304-16.605 11.536-16.07 13.936z" fill="#FFF" fill-rule="nonzero" opacity=".8" style="mix-blend-mode:lighten"/><path d="M173.453 153.18c-2.784 1.525-8.168 3.746-11.075-1.338-2.906-5.084-.728-11.653 2.042-13.185 2.77-1.532 10.796-.529 13.682 4.542 2.886 5.07-1.865 8.449-4.65 9.98z" stroke="#E9F0F4" stroke-width="4" fill="#F9F9F9" fill-rule="nonzero"/><path d="M169 144.328c-.045-.743-4.32-.284-6.638 1.992-.985.959-1.737 2.37-1.162 2.634 1.168.533 7.856-3.68 7.8-4.626zM172 147.328c-.045-.743-4.32-.284-6.638 1.992-.985.96-1.737 2.371-1.162 2.635 1.2.526 7.888-3.681 7.8-4.627zM217.458 134.018c-.514-.33-1.903 4.045-1.316 7.445.252 1.437.884 2.889 1.29 2.46.824-.868.68-9.478.026-9.905zM220.458 133.018c-.514-.33-1.903 4.045-1.316 7.445.252 1.437.884 2.889 1.29 2.46.824-.868.68-9.478.026-9.905z" fill="#E9F0F4" fill-rule="nonzero"/><path d="M200.717 36.029c-.982-.811-5.457 15.62-10.673 25.691-.52 1.01 3.75 1.21 3.75 1.21 5.393 1.636 8.133-25.911 6.923-26.901zM144.017 67.128c-.174 2.105 1.057 5.334 2.008 7.355.596 1.292 1.908 3.636 4.238 4.45 1.392.484 2.871-1.789 3.447-2.448 2.276-2.628-9.6-10.584-9.693-9.357zM205.65 60.015c1.401.327 3.418 7.333 1.673 7.953-.866.32-5.133-1.833-4.187-2.633 2.977-2.42 1.43-5.58 2.515-5.32zM157.162 63.21c1.04-.895 7.13 1.259 6.827 2.906-.147.818-4.423 2.666-4.667 1.518-.722-3.47-2.934-3.704-2.16-4.424zM139.931 49.1c-.428-.344-2.845.213-2.928 1.413-.048.643.488 1.79.94 1.412.453-.379.423-1.148.828-1.573.607-.677 1.482-.993 1.16-1.251z" fill="#FFF" fill-rule="nonzero" opacity=".8" style="mix-blend-mode:lighten"/></g></g></g></svg>